<mxfile host="app.diagrams.net" modified="2023-11-28T18:47:52.144Z" agent="Mozilla/5.0 (Windows NT 10.0; Win64; x64) AppleWebKit/537.36 (KHTML, like Gecko) Chrome/119.0.0.0 Safari/537.36" etag="id9E7Q-GQwYWmMCKCnoh" version="22.1.4" type="device">
  <diagram name="Page-1" id="0C6rbgazT1nEUo85-nEN">
    <mxGraphModel dx="1420" dy="754" grid="1" gridSize="10" guides="1" tooltips="1" connect="1" arrows="1" fold="1" page="1" pageScale="1" pageWidth="850" pageHeight="1100" math="0" shadow="0">
      <root>
        <mxCell id="0" />
        <mxCell id="1" parent="0" />
        <mxCell id="Yo9DqWEjE8RmXLsEaZGv-4" value="" style="edgeStyle=orthogonalEdgeStyle;rounded=0;orthogonalLoop=1;jettySize=auto;html=1;" edge="1" parent="1" source="Yo9DqWEjE8RmXLsEaZGv-1" target="Yo9DqWEjE8RmXLsEaZGv-2">
          <mxGeometry relative="1" as="geometry" />
        </mxCell>
        <mxCell id="Yo9DqWEjE8RmXLsEaZGv-1" value="&lt;b&gt;CmdCalculatorExe&lt;/b&gt;&lt;br&gt;Compiles into the actual exe file" style="rounded=0;whiteSpace=wrap;html=1;" vertex="1" parent="1">
          <mxGeometry x="380" y="340" width="120" height="60" as="geometry" />
        </mxCell>
        <mxCell id="Yo9DqWEjE8RmXLsEaZGv-2" value="&lt;b&gt;CmdCalculator&lt;/b&gt;&lt;br&gt;Implementation for the parsing, representation, and calculation of expressions" style="rounded=0;whiteSpace=wrap;html=1;" vertex="1" parent="1">
          <mxGeometry x="350" y="440" width="180" height="100" as="geometry" />
        </mxCell>
        <mxCell id="Yo9DqWEjE8RmXLsEaZGv-5" value="" style="edgeStyle=orthogonalEdgeStyle;rounded=0;orthogonalLoop=1;jettySize=auto;html=1;" edge="1" parent="1" source="Yo9DqWEjE8RmXLsEaZGv-3" target="Yo9DqWEjE8RmXLsEaZGv-2">
          <mxGeometry relative="1" as="geometry" />
        </mxCell>
        <mxCell id="Yo9DqWEjE8RmXLsEaZGv-3" value="&lt;b&gt;CmdCalculatorTests&lt;/b&gt;&lt;br&gt;Unit tests for CmdCalculator" style="rounded=0;whiteSpace=wrap;html=1;" vertex="1" parent="1">
          <mxGeometry x="580" y="460" width="120" height="60" as="geometry" />
        </mxCell>
        <mxCell id="Yo9DqWEjE8RmXLsEaZGv-6" value="&lt;b&gt;DevInfo&lt;/b&gt;&lt;br&gt;Contains information about the development of CmdCalculator. Does not participate in the build process at all." style="rounded=0;whiteSpace=wrap;html=1;" vertex="1" parent="1">
          <mxGeometry x="120" y="320" width="160" height="100" as="geometry" />
        </mxCell>
      </root>
    </mxGraphModel>
  </diagram>
</mxfile>
